<?xml version="1.0" standalone="no"?>
<!DOCTYPE svg PUBLIC "-//W3C//DTD SVG 20010904//EN"
 "http://www.w3.org/TR/2001/REC-SVG-20010904/DTD/svg10.dtd">
<svg version="1.0" xmlns="http://www.w3.org/2000/svg"
 width="700.000000pt" height="700.000000pt" viewBox="0 0 700.000000 700.000000"
 preserveAspectRatio="xMidYMid meet">
<metadata>
Created by potrace 1.11, written by Peter Selinger 2001-2013
</metadata>
<g transform="translate(0.000000,700.000000) scale(0.100000,-0.100000)"
fill="#000000" stroke="none">
<path d="M881 6115 c-4 -5 -7 -1187 -7 -2625 l1 -2615 2618 0 c1441 0 2622 2
2626 5 8 6 9 5239 1 5241 -3 1 -1181 2 -2618 3 -1744 1 -2616 -2 -2621 -9z
m4353 -530 c-5 -119 -64 -415 -123 -614 -61 -205 -141 -387 -239 -546 -31 -49
-59 -92 -62 -95 -3 -3 -24 -30 -47 -61 -43 -56 -150 -169 -214 -225 -140 -123
-383 -267 -599 -354 -30 -12 -77 -31 -104 -42 -57 -23 -274 -100 -456 -163
-166 -56 -414 -149 -514 -192 -45 -19 -99 -42 -121 -51 -78 -32 -364 -181
-452 -236 -204 -126 -389 -272 -558 -440 -115 -114 -221 -231 -254 -279 -8
-12 -20 -27 -26 -33 -5 -6 -21 -25 -34 -42 -13 -18 -27 -32 -30 -32 -5 0 -7
3400 -2 3420 0 3 864 5 1918 5 1903 -1 1918 -1 1917 -20z m371 -1280 c0 -346
-3 -442 -12 -429 -23 32 -156 406 -156 440 0 6 21 61 47 123 26 62 61 154 78
204 28 86 36 107 41 107 1 0 2 -200 2 -445z m-335 -327 c7 -18 19 -46 25 -63
7 -16 20 -48 28 -70 59 -154 192 -397 255 -463 6 -8 16 -21 20 -30 6 -13 9
-834 3 -850 -2 -8 -82 61 -155 135 -218 218 -401 530 -521 890 -32 94 -31 103
7 133 82 65 288 292 305 337 8 22 20 15 33 -19z m-550 -650 c188 -493 477
-881 822 -1106 l63 -41 0 -280 c-1 -154 -4 -283 -8 -287 -15 -15 -294 158
-457 285 -94 72 -317 288 -367 354 -17 23 -40 51 -50 62 -10 11 -36 45 -58 75
-22 30 -42 57 -46 60 -4 3 -43 65 -88 138 -96 156 -183 335 -239 487 -48 133
-58 175 -42 175 17 0 332 157 372 185 18 13 37 23 41 22 5 -2 31 -60 57 -129z
m-706 -245 c75 -239 239 -566 394 -783 134 -188 339 -413 492 -541 36 -30 67
-56 70 -59 40 -45 422 -290 450 -290 7 0 10 -3 6 -7 -4 -4 -168 -8 -364 -8
l-357 -1 -75 45 c-388 231 -714 648 -923 1181 -42 107 -102 289 -111 335 -2
11 -6 26 -8 33 -2 9 38 28 122 58 69 25 154 55 190 68 93 34 94 34 114 -31z
m-664 -215 c44 -172 161 -470 260 -663 138 -266 284 -468 482 -669 76 -77 138
-140 138 -140 0 -1 -112 -1 -249 -1 l-249 1 -37 28 c-107 82 -253 258 -374
451 -135 216 -302 596 -345 781 -8 39 -18 78 -21 86 -5 13 52 41 230 113 17 7
53 21 80 33 70 28 73 27 85 -20z m-616 -305 c19 -75 21 -78 66 -208 32 -90
137 -331 171 -392 10 -18 35 -63 55 -100 70 -130 215 -341 282 -413 53 -57 60
-55 -185 -55 l-225 1 -35 39 c-132 147 -320 524 -406 815 -45 153 -53 193 -39
198 7 2 25 14 40 26 43 35 239 156 253 156 3 0 14 -30 23 -67z m-525 -390 c61
-208 194 -512 296 -678 24 -38 45 -76 47 -84 2 -12 -27 -15 -184 -15 l-188 -1
-45 65 c-80 117 -144 272 -186 449 l-20 84 28 31 c53 59 218 226 223 226 3 0
16 -35 29 -77z m-454 -529 c9 -27 37 -91 61 -143 24 -51 44 -96 44 -100 0 -3
-72 -6 -160 -6 -99 0 -160 4 -159 10 2 18 40 86 112 203 76 123 74 123 102 36z"/>
</g>
</svg>
